<?xml version="1.0" encoding="UTF-8"?>
<svg version="1.1" viewBox="0 0 1000 803" xmlns="http://www.w3.org/2000/svg">
<g>
<svg width="1e3" height="803" data-background-color="#ffffff" viewBox="0 0 448 360" xmlns="http://www.w3.org/2000/svg" xmlns:xlink="http://www.w3.org/1999/xlink">
<g>
<svg width="448" height="360" viewBox="0 0 448 360">
<svg/>
<svg width="448" height="360" viewBox="0 0 448 360">
<path d="m193.86 44.683c1.378 0 2.494 1.116 2.495 2.494 0 1.378-1.116 2.494-2.495 2.495h-23.846l-17.167 17.167c-0.973 0.973-2.551 0.973-3.53 0-0.973-0.973-0.973-2.551 0-3.529l13.644-13.645h-40.378c-11.518 0-19.151 2.688-23.815 8.113-4.739 5.519-6.66 14.056-6.66 25.63 0 0.069 0 0.137-6e-3 0.206l0.212 36.692 14.692-14.692c0.973-0.973 2.551-0.973 3.53 0 0.973 0.973 0.973 2.551 0 3.53l-18.178 18.178c0.206 35.832 0.193 71.358-0.013 107.19 25.486 25.2 50.617 50.312 75.811 75.791h25.38c1.378 0 2.494 1.116 2.495 2.495 0 1.378-1.116 2.494-2.495 2.494h-20.448l25.942 26.241 6e-3 -6e-3c8.188 8.188 15.577 12.859 22.824 13.413 7.146 0.543 14.442-2.956 22.586-11.093l28.555-28.555h-20.722c-1.378 0-2.494-1.116-2.495-2.494 0-1.378 1.116-2.494 2.495-2.495h25.711l16.625-16.625c0.973-0.973 2.551-0.973 3.529 0 0.973 0.973 0.973 2.551 0 3.53l-13.101 13.102h40.377c11.518 0 19.151-2.688 23.815-8.113 4.739-5.519 6.66-14.056 6.66-25.63h0.013l-0.212-36.898-16.014 16.014c-0.973 0.973-2.551 0.973-3.53 0-0.973-0.973-0.973-2.551 0-3.53l19.5-19.5c-0.206-35.832-0.193-71.358 0.013-107.19-25.486-25.2-50.617-50.312-75.811-75.791h-26.147c-1.378 0-2.494-1.116-2.495-2.495 0-1.378 1.116-2.494 2.495-2.494h21.215l-25.824-26.123c-0.044-0.037-0.081-0.075-0.124-0.112-8.188-8.188-15.577-12.859-22.824-13.413-7.146-0.543-14.442 2.956-22.586 11.093l-28.555 28.555h18.858zm-71.277 0h45.367l32.078-32.078c9.248-9.248 17.81-13.195 26.484-12.534 8.568 0.649 16.956 5.824 25.985 14.854 0.05 0.05 0.094 0.094 0.137 0.143l29.278 29.615h43.508c13.071 0 21.919 3.268 27.594 9.871 5.6 6.517 7.864 16.101 7.864 28.867 0 0.081-6e-3 0.156-0.012 0.23l-0.225 39.742 28.43 28.112 6e-3 -6e-3c9.03 9.03 14.206 17.411 14.854 25.985 0.661 8.674-3.293 17.236-12.534 26.484l-30.768 30.768 0.237 41.843h0.012c0 12.765-2.27 22.35-7.864 28.867-5.675 6.604-14.524 9.872-27.594 9.871h-45.366l-32.078 32.078c-9.248 9.248-17.81 13.195-26.484 12.534-8.568-0.649-16.956-5.824-25.985-14.854l6e-3 -6e-3 -29.421-29.758h-43.509c-13.071 0-21.919-3.268-27.594-9.872-5.6-6.517-7.864-16.101-7.863-28.866h0.012l0.231-39.972-28.293-27.969c-0.05-0.044-0.1-0.087-0.143-0.137-9.03-9.03-14.206-17.411-14.854-25.985-0.661-8.674 3.293-17.236 12.534-26.484l30.768-30.768-0.237-41.607c-6e-3 -0.075-0.012-0.156-0.012-0.23 0-12.765 2.27-22.35 7.864-28.867 5.675-6.604 14.524-9.872 27.594-9.871zm-34.896 135.31-0.274-47.724-27.276 27.276c-8.138 8.138-11.636 15.44-11.094 22.587 0.549 7.246 5.226 14.642 13.413 22.823 0.037 0.037 0.081 0.081 0.113 0.125l24.837 24.551 0.281-49.644zm4.621 61.486-0.2 35.09h0.013c0 11.58 1.921 20.117 6.66 25.63 4.664 5.432 12.297 8.113 23.815 8.113h38.576l-33.55-33.936-35.308-34.903zm233.11-191.81h-38.575l33.549 33.936 35.308 34.902 0.2-34.884c-6e-3 -0.069-6e-3 -0.137-7e-3 -0.205 0-11.58-1.921-20.117-6.66-25.63-4.664-5.432-12.297-8.113-23.815-8.113zm35.184 80.68-0.281 49.645 0.274 47.724 27.276-27.276c8.138-8.138 11.636-15.44 11.094-22.587-0.549-7.252-5.226-14.642-13.413-22.824l6e-3 -6e-3 -24.956-24.669z" font-family="none" font-size="none" font-weight="none" stroke-dasharray="" stroke-miterlimit="10" text-anchor="none" style="mix-blend-mode:normal" data-fill-palette-color="tertiary" xmlns="http://www.w3.org/2000/svg"/>
<g transform="translate(112 150.83)">
<svg width="224" height="58.331" viewBox="0 0 224 58.33115549747993">
<svg width="224" height="58.331" viewBox="0 0 224 58.33115549747993">
<svg width="224" height="58.331" viewBox="0 0 224 58.33115549747993">
<svg width="224" height="58.331" viewBox="0 0 224 58.33115549747993">
<svg width="224" height="58.331" viewBox="0 0 224 58.33115549747993">
<g>
<svg width="224" height="58.331" data-palette-color="#000000" viewBox="3.200000047683716 -47 267.8299865722656 69.75">
<path class="wordmark-text-0" d="m22.65 0.25q-5.95 0-10.35-2.18-4.4-2.17-6.75-6.17t-2.35-9.3q0-7.35 2.78-13.05 2.77-5.7 7.52-8.83 4.75-3.12 10.55-3.12 5.4 0 8.2 2.77 2.8 2.78 2.8 7.33 0 3.05-1.07 4.9-1.08 1.85-3.08 1.85-1.4 0-2.2-0.65t-0.8-1.9q0-0.45 0.2-1.65 0.3-1.5 0.3-2.4 0-4.55-4.85-4.55-3.3 0-6.3 2.15t-4.85 6.32q-1.85 4.18-1.85 9.93 0 6 3.35 9.27 3.35 3.28 9.9 3.28 3.25 0 6.58-0.83 3.32-0.82 7.37-2.52 0.75-0.3 1.25-0.3 0.8 0 1.2 0.6t0.4 1.55q0 3.05-3.3 4.5-3.55 1.55-7.37 2.27-3.83 0.73-7.28 0.73zm39.05-15.6q0.65 0 1 0.65t0.35 1.65q0 2.4-1.45 2.85-3 1.05-6.6 1.2-0.95 4.2-3.75 6.73-2.8 2.52-6.35 2.52-3 0-5.13-1.45-2.12-1.45-3.22-3.85t-1.1-5.2q0-3.8 1.45-6.78 1.45-2.97 4-4.65 2.55-1.67 5.65-1.67 3.8 0 6.12 2.62 2.33 2.63 2.73 6.48 2.35-0.15 5.6-1 0.4-0.1 0.7-0.1zm-16.4 10.3q1.6 0 2.77-1.3 1.18-1.3 1.58-3.75-1.55-1.05-2.38-2.75-0.82-1.7-0.82-3.6 0-0.8 0.15-1.6h-0.25q-2 0-3.33 1.92-1.32 1.93-1.32 5.43 0 2.75 1.07 4.2 1.08 1.45 2.53 1.45zm41.85-6.1q0.65 0 1.02 0.6 0.38 0.6 0.38 1.65 0 2-0.95 3.1-2.05 2.5-4.5 4.27-2.45 1.78-4.85 1.78-3.8 0-5.8-4.45-2.1 2.65-3.68 3.55-1.57 0.9-3.67 0.9-3.05 0-5.03-2.27-1.97-2.28-1.97-5.93 0-4 1.7-7.43 1.7-3.42 4.67-5.6 2.98-2.17 6.68-2.57 0.95-9.7 3.62-16.58 2.68-6.87 7.03-6.87 2.15 0 3.57 1.95 1.43 1.95 1.43 5.9 0 5.6-2.75 13.1t-7.35 15.4q0.2 2.9 0.87 4.15 0.68 1.25 1.73 1.25 1.35 0 2.75-1.2t3.75-4q0.6-0.7 1.35-0.7zm-5.9-30.95q-0.95 0-1.9 3.37-0.95 3.38-1.63 8.83-0.67 5.45-0.97 11.4 5.6-12.2 5.6-19.6 0-1.9-0.33-2.95-0.32-1.05-0.77-1.05zm-14.4 37.3q0.95 0 1.9-0.78 0.95-0.77 2.4-2.87-0.5-2.7-0.5-6.05 0-1.2 0.1-3.9-2.75 0.85-4.58 3.67-1.82 2.83-1.82 6.28 0 3.65 2.5 3.65zm39.94-6.35q0.65 0 1.03 0.6 0.37 0.6 0.37 1.65 0 2-0.95 3.1-1.85 2.25-5.22 4.15-3.38 1.9-7.23 1.9-5.25 0-8.15-2.85t-2.9-7.8q0-3.45 1.45-6.42 1.45-2.98 4.03-4.73 2.57-1.75 5.82-1.75 2.9 0 4.65 1.72 1.75 1.73 1.75 4.68 0 3.45-2.47 5.92-2.48 2.48-8.38 3.93 1.25 2.3 4.75 2.3 2.25 0 5.13-1.58 2.87-1.57 4.97-4.12 0.6-0.7 1.35-0.7zm-12.6-7.25q-1.85 0-3.12 2.15-1.28 2.15-1.28 5.2v0.1q2.95-0.7 4.65-2.1t1.7-3.25q0-0.95-0.52-1.52-0.53-0.58-1.43-0.58zm15.85 18.65q-3.1 0-4.95-2.25t-1.85-5.9q0-4 1.85-7.58 1.85-3.57 4.93-5.75 3.07-2.17 6.52-2.17 1.1 0 1.48 0.42 0.37 0.43 0.62 1.53 1.05-0.2 2.2-0.2 2.45 0 2.45 1.75 0 1.05-0.75 5-1.15 5.75-1.15 8 0 0.75 0.38 1.2 0.37 0.45 0.97 0.45 0.95 0 2.3-1.23 1.35-1.22 3.65-3.97 0.6-0.7 1.35-0.7 0.65 0 1.03 0.6 0.37 0.6 0.37 1.65 0 2-0.95 3.1-2.05 2.55-4.35 4.3t-4.45 1.75q-1.65 0-3.02-1.13-1.38-1.12-2.08-3.07-2.6 4.2-6.55 4.2zm1.8-5.05q1.1 0 2.1-1.3t1.45-3.45l1.85-9.2q-2.1 0.05-3.87 1.57-1.78 1.53-2.83 4.03t-1.05 5.3q0 1.55 0.63 2.3 0.62 0.75 1.72 0.75zm34.5-6.35q0.65 0 1.02 0.6 0.38 0.6 0.38 1.65 0 2-0.95 3.1-2.15 2.65-4.68 4.35-2.52 1.7-5.72 1.7-4.4 0-6.53-4-2.12-4-2.12-10.35 0-6.1 1.57-13.9 1.58-7.8 4.65-13.4 3.08-5.6 7.33-5.6 2.4 0 3.77 2.22 1.38 2.23 1.38 6.38 0 5.95-3.3 13.8t-8.95 15.55q0.35 2.05 1.15 2.92 0.8 0.88 2.1 0.88 2.05 0 3.6-1.18 1.55-1.17 3.95-4.02 0.6-0.7 1.35-0.7zm-6.15-30.9q-1.15 0-2.6 4.15t-2.55 10.3-1.2 11.8q3.55-5.85 5.65-11.73 2.1-5.87 2.1-10.72 0-3.8-1.4-3.8zm13.05 42.3q-4.9 0-7.63-2.78-2.72-2.77-2.72-7.32 0-4.05 1.6-7.1t4.15-4.7 5.35-1.65q2.75 0 4.27 1.62 1.53 1.63 1.53 4.18 0 2.1-0.93 3.55-0.92 1.45-2.42 1.45-0.95 0-1.53-0.45-0.57-0.45-0.57-1.25 0-0.35 0.1-0.8t0.15-0.65q0.25-0.75 0.25-1.4t-0.33-1q-0.32-0.35-0.92-0.35-1.15 0-2.15 1.02-1 1.03-1.6 2.78t-0.6 3.85q0 5.8 5.05 5.8 2.05 0 4.42-1.38 2.38-1.37 4.68-4.12 0.6-0.7 1.35-0.7 0.65 0 1.02 0.6 0.38 0.6 0.38 1.65 0 1.9-0.95 3.1-2.35 2.9-5.63 4.47-3.27 1.58-6.32 1.58zm36.59-11.4q0.65 0 1.03 0.6 0.37 0.6 0.37 1.65 0 2-0.95 3.1-2.3 2.65-4.72 4.35-2.43 1.7-5.53 1.7-2.55 0-3.85-1.48-1.3-1.47-1.3-4.27 0-1.4 0.7-5 0.65-3.15 0.65-4.35 0-0.8-0.55-0.8-0.65 0-1.85 1.67-1.2 1.68-2.4 4.43t-1.95 5.8q-0.95 4-4.7 4-1.5 0-1.97-1.08-0.48-1.07-0.48-3.87 0-1.6 0.05-2.55l0.05-4q0-7.7 1.58-16.05 1.57-8.35 4.65-14.03 3.07-5.67 7.37-5.67 2.3 0 3.73 1.97 1.42 1.98 1.42 5.13 0 5.05-2.95 10.47-2.95 5.43-9.6 12.68-0.15 2.6-0.15 5.35 1.65-4.25 3.68-6.92 2.02-2.68 4-3.83 1.97-1.15 3.62-1.15 3.25 0 3.25 3.25 0 1.95-1.1 7.05-0.95 4.35-0.95 5.75 0 2 1.45 2 1 0 2.38-1.23 1.37-1.22 3.67-3.97 0.6-0.7 1.35-0.7zm-14.85-30.9q-0.9 0-2 2.57-1.1 2.58-2.12 6.96-1.03 4.37-1.68 9.52 3.1-3.65 5.13-7.95 2.02-4.3 2.02-7.8 0-1.6-0.35-2.45t-1-0.85zm34.5 30.9q0.65 0 1.03 0.6 0.37 0.6 0.37 1.65 0 2-0.95 3.1-1.85 2.25-5.22 4.15-3.38 1.9-7.23 1.9-5.25 0-8.15-2.85t-2.9-7.8q0-3.45 1.45-6.42 1.45-2.98 4.03-4.73 2.57-1.75 5.82-1.75 2.9 0 4.65 1.72 1.75 1.73 1.75 4.68 0 3.45-2.47 5.92-2.48 2.48-8.38 3.93 1.25 2.3 4.75 2.3 2.25 0 5.13-1.58 2.87-1.57 4.97-4.12 0.6-0.7 1.35-0.7zm-12.6-7.25q-1.85 0-3.12 2.15-1.28 2.15-1.28 5.2v0.1q2.95-0.7 4.65-2.1t1.7-3.25q0-0.95-0.52-1.52-0.53-0.58-1.43-0.58zm13.5 18.65q-1.9 0-2.68-2-0.77-2-0.77-6.4 0-6.5 1.85-12.35 0.45-1.45 1.47-2.13 1.03-0.67 2.88-0.67 1 0 1.4 0.25t0.4 0.95q0 0.8-0.75 3.6-0.5 2-0.8 3.47-0.3 1.48-0.5 3.68 1.35-3.9 3.22-6.6 1.88-2.7 3.85-4.03 1.98-1.32 3.73-1.32t2.47 0.8q0.73 0.8 0.73 2.45 0 1.6-0.95 5.8-0.4 1.8-0.55 2.7 2.5-6.15 5.55-8.95t5.7-2.8q3.25 0 3.25 3.25 0 1.95-1.1 7.05-0.95 4.35-0.95 5.75 0 2 1.45 2 1 0 2.37-1.23 1.38-1.22 3.68-3.97 0.6-0.7 1.35-0.7 0.65 0 1.02 0.6 0.38 0.6 0.38 1.65 0 2-0.95 3.1-2.15 2.65-4.63 4.35-2.47 1.7-5.62 1.7-2.55 0-3.85-1.48-1.3-1.47-1.3-4.27 0-1.4 0.7-5 0.65-3.15 0.65-4.35 0-0.8-0.55-0.8-0.65 0-1.85 1.67-1.2 1.68-2.4 4.43t-1.95 5.8q-0.55 2.4-1.28 3.2-0.72 0.8-2.32 0.8-1.65 0-2.48-1.58-0.82-1.57-0.82-3.82 0-1.9 0.5-5.5 0.4-3.2 0.4-4.2 0-0.8-0.55-0.8-0.75 0-1.9 1.8t-2.23 4.6q-1.07 2.8-1.72 5.5-0.55 2.35-1.28 3.17-0.72 0.83-2.27 0.83zm59.25-11.3q0.65 0 1.02 0.62 0.38 0.63 0.38 1.58 0 1.15-0.35 1.8t-1.1 1.15l-9.6 6.45q-1.9 10.35-4.98 16.27-3.07 5.93-7.82 5.93-2.55 0-4.15-1.57-1.6-1.58-1.6-4.13 0-2.35 1.07-4.8 1.08-2.45 4-5.62 2.93-3.18 8.28-7.28l0.15-1.15q0.35-1.85 0.8-5.3-1 3.6-2.8 5.47-1.8 1.88-3.8 1.88-2.25 0-3.68-2.08-1.42-2.07-1.42-5.17 0-3.75 0.5-6.88 0.5-3.12 1.65-6.62 0.5-1.5 1.4-2.15t2.85-0.65q1.1 0 1.52 0.35 0.43 0.35 0.43 1.05 0 0.4-0.55 2.7-0.5 1.85-0.8 3.35-0.4 2.05-0.7 3.92-0.3 1.88-0.3 3.08 0 1.9 1.05 1.9 0.75 0 1.87-1.5 1.13-1.5 2.4-4.55 1.28-3.05 2.48-7.5 0.4-1.5 1.22-2.15 0.83-0.65 2.48-0.65 1.15 0 1.6 0.3t0.45 1q0 1.25-1.3 8.6l-1.3 8.05q3.85-2.9 7.5-5.3 0.65-0.4 1.15-0.4zm-21.9 28.95q1.25 0 2.8-2.9t3.1-9.65q-3.85 3.25-5.58 5.93-1.72 2.67-1.72 4.67 0 0.85 0.32 1.4 0.33 0.55 1.08 0.55z" data-fill-palette-color="primary"/>
</svg>
</g>
</svg>
</svg>
</svg>
</svg>
</svg>
</g>
</svg>
</svg>
<rect width="448" height="360" fill="none" visibility="hidden"/>
</g>
</svg>
</g>
</svg>
