<svg xmlns="http://www.w3.org/2000/svg" version="1.1" xmlns:xlink="http://www.w3.org/1999/xlink" xmlns:svgjs="http://svgjs.dev/svgjs" width="1000" height="803" viewBox="0 0 1000 803"><g transform="matrix(1,0,0,1,0,0)"><svg viewBox="0 0 448 360" data-background-color="#ffffff" preserveAspectRatio="xMidYMid meet" height="803" width="1000" xmlns="http://www.w3.org/2000/svg" xmlns:xlink="http://www.w3.org/1999/xlink"><g id="tight-bounds" transform="matrix(1,0,0,1,0,0)"><svg viewBox="0 0 448 360" height="360" width="448"><g><svg></svg></g><g><svg viewBox="0 0 448 360" height="360" width="448"><g><path xmlns="http://www.w3.org/2000/svg" d="M193.855 44.683c1.378 0 2.494 1.116 2.495 2.494 0 1.378-1.116 2.494-2.495 2.495h-23.846l-17.167 17.167c-0.973 0.973-2.551 0.973-3.53 0-0.973-0.973-0.973-2.551 0-3.529l13.644-13.645h-40.378c-11.518 0-19.151 2.688-23.815 8.113-4.739 5.519-6.66 14.056-6.66 25.63 0 0.069 0 0.137-0.006 0.206l0.212 36.692 14.692-14.692c0.973-0.973 2.551-0.973 3.53 0 0.973 0.973 0.973 2.551 0 3.53l-18.178 18.178c0.206 35.832 0.193 71.358-0.013 107.19 25.486 25.2 50.617 50.312 75.811 75.791h25.38c1.378 0 2.494 1.116 2.495 2.495 0 1.378-1.116 2.494-2.495 2.494h-20.448l25.942 26.241 0.006-0.006c8.188 8.188 15.577 12.859 22.824 13.413 7.146 0.543 14.442-2.956 22.586-11.093l28.555-28.555h-20.722c-1.378 0-2.494-1.116-2.495-2.494 0-1.378 1.116-2.494 2.495-2.495h25.711l16.625-16.625c0.973-0.973 2.551-0.973 3.529 0 0.973 0.973 0.973 2.551 0 3.53l-13.101 13.102h40.377c11.518 0 19.151-2.688 23.815-8.113 4.739-5.519 6.66-14.056 6.66-25.63h0.013l-0.212-36.898-16.014 16.014c-0.973 0.973-2.551 0.973-3.53 0-0.973-0.973-0.973-2.551 0-3.53l19.5-19.5c-0.206-35.832-0.193-71.358 0.013-107.19-25.486-25.2-50.617-50.312-75.811-75.791h-26.147c-1.378 0-2.494-1.116-2.495-2.495 0-1.378 1.116-2.494 2.495-2.494h21.215l-25.824-26.123c-0.044-0.037-0.081-0.075-0.124-0.112-8.188-8.188-15.577-12.859-22.824-13.413-7.146-0.543-14.442 2.956-22.586 11.093l-28.555 28.555h18.858zM122.578 44.683h45.367l32.078-32.078c9.248-9.248 17.81-13.195 26.484-12.534 8.568 0.649 16.956 5.824 25.985 14.854 0.05 0.05 0.094 0.094 0.137 0.143l29.278 29.615h43.508c13.071 0 21.919 3.268 27.594 9.871 5.6 6.517 7.864 16.101 7.864 28.867 0 0.081-0.006 0.156-0.012 0.23l-0.225 39.742 28.43 28.112 0.006-0.006c9.03 9.03 14.206 17.411 14.854 25.985 0.661 8.674-3.293 17.236-12.534 26.484l-30.768 30.768 0.237 41.843h0.012c0 12.765-2.27 22.35-7.864 28.867-5.675 6.604-14.524 9.872-27.594 9.871h-45.366l-32.078 32.078c-9.248 9.248-17.81 13.195-26.484 12.534-8.568-0.649-16.956-5.824-25.985-14.854l0.006-0.006-29.421-29.758h-43.509c-13.071 0-21.919-3.268-27.594-9.872-5.6-6.517-7.864-16.101-7.863-28.866h0.012l0.231-39.972-28.293-27.969c-0.05-0.044-0.1-0.087-0.143-0.137-9.03-9.03-14.206-17.411-14.854-25.985-0.661-8.674 3.293-17.236 12.534-26.484l30.768-30.768-0.237-41.607c-0.006-0.075-0.012-0.156-0.012-0.23 0-12.765 2.27-22.35 7.864-28.867 5.675-6.604 14.524-9.872 27.594-9.871zM87.682 179.997l-0.274-47.724-27.276 27.276c-8.138 8.138-11.636 15.44-11.094 22.587 0.549 7.246 5.226 14.642 13.413 22.823 0.037 0.037 0.081 0.081 0.113 0.125l24.837 24.551 0.281-49.644zM92.303 241.483l-0.2 35.09h0.013c0 11.58 1.921 20.117 6.66 25.63 4.664 5.432 12.297 8.113 23.815 8.113h38.576l-33.55-33.936-35.308-34.903zM325.415 49.672h-38.575l33.549 33.936 35.308 34.902 0.2-34.884c-0.006-0.069-0.006-0.137-0.007-0.205 0-11.58-1.921-20.117-6.66-25.63-4.664-5.432-12.297-8.113-23.815-8.113zM360.599 130.352l-0.281 49.645 0.274 47.724 27.276-27.276c8.138-8.138 11.636-15.44 11.094-22.587-0.549-7.252-5.226-14.642-13.413-22.824l0.006-0.006-24.956-24.669z" fill="#000000" fill-rule="nonzero" stroke="none" stroke-width="1" stroke-linecap="butt" stroke-linejoin="miter" stroke-miterlimit="10" stroke-dasharray="" stroke-dashoffset="0" font-family="none" font-weight="none" font-size="none" text-anchor="none" style="mix-blend-mode: normal" data-fill-palette-color="tertiary"></path></g><g transform="matrix(1,0,0,1,112,150.83442225126004)"><svg viewBox="0 0 224 58.33115549747993" height="58.33115549747993" width="224"><g><svg viewBox="0 0 224 58.33115549747993" height="58.33115549747993" width="224"><g><svg viewBox="0 0 224 58.33115549747993" height="58.33115549747993" width="224"><g id="textblocktransform"><svg viewBox="0 0 224 58.33115549747993" height="58.33115549747993" width="224" id="textblock"><g><svg viewBox="0 0 224 58.33115549747993" height="58.33115549747993" width="224"><g transform="matrix(1,0,0,1,0,0)"><svg width="224" viewBox="3.200000047683716 -47 267.8299865722656 69.75" height="58.33115549747993" data-palette-color="#000000"><path d="M22.65 0.25Q16.7 0.25 12.3-1.93 7.9-4.1 5.55-8.1 3.2-12.1 3.2-17.4L3.2-17.4Q3.2-24.75 5.98-30.45 8.75-36.15 13.5-39.28 18.25-42.4 24.05-42.4L24.05-42.4Q29.45-42.4 32.25-39.63 35.05-36.85 35.05-32.3L35.05-32.3Q35.05-29.25 33.98-27.4 32.9-25.55 30.9-25.55L30.9-25.55Q29.5-25.55 28.7-26.2 27.9-26.85 27.9-28.1L27.9-28.1Q27.9-28.55 28.1-29.75L28.1-29.75Q28.4-31.25 28.4-32.15L28.4-32.15Q28.4-36.7 23.55-36.7L23.55-36.7Q20.25-36.7 17.25-34.55 14.25-32.4 12.4-28.23 10.55-24.05 10.55-18.3L10.55-18.3Q10.55-12.3 13.9-9.03 17.25-5.75 23.8-5.75L23.8-5.75Q27.05-5.75 30.38-6.58 33.7-7.4 37.75-9.1L37.75-9.1Q38.5-9.4 39-9.4L39-9.4Q39.8-9.4 40.2-8.8 40.6-8.2 40.6-7.25L40.6-7.25Q40.6-4.2 37.3-2.75L37.3-2.75Q33.75-1.2 29.93-0.48 26.1 0.25 22.65 0.25L22.65 0.25ZM61.7-15.35Q62.35-15.35 62.7-14.7 63.05-14.05 63.05-13.05L63.05-13.05Q63.05-10.65 61.6-10.2L61.6-10.2Q58.6-9.15 55-9L55-9Q54.05-4.8 51.25-2.27 48.45 0.25 44.9 0.25L44.9 0.25Q41.9 0.25 39.77-1.2 37.65-2.65 36.55-5.05 35.45-7.45 35.45-10.25L35.45-10.25Q35.45-14.05 36.9-17.03 38.35-20 40.9-21.68 43.45-23.35 46.55-23.35L46.55-23.35Q50.35-23.35 52.67-20.73 55-18.1 55.4-14.25L55.4-14.25Q57.75-14.4 61-15.25L61-15.25Q61.4-15.35 61.7-15.35L61.7-15.35ZM45.3-5.05Q46.9-5.05 48.07-6.35 49.25-7.65 49.65-10.1L49.65-10.1Q48.1-11.15 47.27-12.85 46.45-14.55 46.45-16.45L46.45-16.45Q46.45-17.25 46.6-18.05L46.6-18.05 46.35-18.05Q44.35-18.05 43.02-16.13 41.7-14.2 41.7-10.7L41.7-10.7Q41.7-7.95 42.77-6.5 43.85-5.05 45.3-5.05L45.3-5.05ZM87.15-11.15Q87.8-11.15 88.17-10.55 88.55-9.95 88.55-8.9L88.55-8.9Q88.55-6.9 87.6-5.8L87.6-5.8Q85.55-3.3 83.1-1.53 80.65 0.25 78.25 0.25L78.25 0.25Q74.45 0.25 72.45-4.2L72.45-4.2Q70.35-1.55 68.77-0.65 67.2 0.25 65.1 0.25L65.1 0.25Q62.05 0.25 60.07-2.02 58.1-4.3 58.1-7.95L58.1-7.95Q58.1-11.95 59.8-15.38 61.5-18.8 64.47-20.98 67.45-23.15 71.15-23.55L71.15-23.55Q72.1-33.25 74.77-40.13 77.45-47 81.8-47L81.8-47Q83.95-47 85.37-45.05 86.8-43.1 86.8-39.15L86.8-39.15Q86.8-33.55 84.05-26.05 81.3-18.55 76.7-10.65L76.7-10.65Q76.9-7.75 77.57-6.5 78.25-5.25 79.3-5.25L79.3-5.25Q80.65-5.25 82.05-6.45 83.45-7.65 85.8-10.45L85.8-10.45Q86.4-11.15 87.15-11.15L87.15-11.15ZM81.25-42.1Q80.3-42.1 79.35-38.73 78.4-35.35 77.72-29.9 77.05-24.45 76.75-18.5L76.75-18.5Q82.35-30.7 82.35-38.1L82.35-38.1Q82.35-40 82.02-41.05 81.7-42.1 81.25-42.1L81.25-42.1ZM66.85-4.8Q67.8-4.8 68.75-5.58 69.7-6.35 71.15-8.45L71.15-8.45Q70.65-11.15 70.65-14.5L70.65-14.5Q70.65-15.7 70.75-18.4L70.75-18.4Q68-17.55 66.17-14.73 64.35-11.9 64.35-8.45L64.35-8.45Q64.35-4.8 66.85-4.8L66.85-4.8ZM106.79-11.15Q107.44-11.15 107.82-10.55 108.19-9.95 108.19-8.9L108.19-8.9Q108.19-6.9 107.24-5.8L107.24-5.8Q105.39-3.55 102.02-1.65 98.64 0.25 94.79 0.25L94.79 0.25Q89.54 0.25 86.64-2.6 83.74-5.45 83.74-10.4L83.74-10.4Q83.74-13.85 85.19-16.82 86.64-19.8 89.22-21.55 91.79-23.3 95.04-23.3L95.04-23.3Q97.94-23.3 99.69-21.58 101.44-19.85 101.44-16.9L101.44-16.9Q101.44-13.45 98.97-10.98 96.49-8.5 90.59-7.05L90.59-7.05Q91.84-4.75 95.34-4.75L95.34-4.75Q97.59-4.75 100.47-6.33 103.34-7.9 105.44-10.45L105.44-10.45Q106.04-11.15 106.79-11.15L106.79-11.15ZM94.19-18.4Q92.34-18.4 91.07-16.25 89.79-14.1 89.79-11.05L89.79-11.05 89.79-10.95Q92.74-11.65 94.44-13.05 96.14-14.45 96.14-16.3L96.14-16.3Q96.14-17.25 95.62-17.82 95.09-18.4 94.19-18.4L94.19-18.4ZM110.04 0.25Q106.94 0.25 105.09-2 103.24-4.25 103.24-7.9L103.24-7.9Q103.24-11.9 105.09-15.48 106.94-19.05 110.02-21.23 113.09-23.4 116.54-23.4L116.54-23.4Q117.64-23.4 118.02-22.98 118.39-22.55 118.64-21.45L118.64-21.45Q119.69-21.65 120.84-21.65L120.84-21.65Q123.29-21.65 123.29-19.9L123.29-19.9Q123.29-18.85 122.54-14.9L122.54-14.9Q121.39-9.15 121.39-6.9L121.39-6.9Q121.39-6.15 121.77-5.7 122.14-5.25 122.74-5.25L122.74-5.25Q123.69-5.25 125.04-6.48 126.39-7.7 128.69-10.45L128.69-10.45Q129.29-11.15 130.04-11.15L130.04-11.15Q130.69-11.15 131.07-10.55 131.44-9.95 131.44-8.9L131.44-8.9Q131.44-6.9 130.49-5.8L130.49-5.8Q128.44-3.25 126.14-1.5 123.84 0.25 121.69 0.25L121.69 0.25Q120.04 0.25 118.67-0.88 117.29-2 116.59-3.95L116.59-3.95Q113.99 0.25 110.04 0.25L110.04 0.25ZM111.84-4.8Q112.94-4.8 113.94-6.1 114.94-7.4 115.39-9.55L115.39-9.55 117.24-18.75Q115.14-18.7 113.37-17.18 111.59-15.65 110.54-13.15 109.49-10.65 109.49-7.85L109.49-7.85Q109.49-6.3 110.12-5.55 110.74-4.8 111.84-4.8L111.84-4.8ZM146.34-11.15Q146.99-11.15 147.36-10.55 147.74-9.95 147.74-8.9L147.74-8.9Q147.74-6.9 146.79-5.8L146.79-5.8Q144.64-3.15 142.11-1.45 139.59 0.25 136.39 0.25L136.39 0.25Q131.99 0.25 129.86-3.75 127.74-7.75 127.74-14.1L127.74-14.1Q127.74-20.2 129.31-28 130.89-35.8 133.96-41.4 137.04-47 141.29-47L141.29-47Q143.69-47 145.06-44.78 146.44-42.55 146.44-38.4L146.44-38.4Q146.44-32.45 143.14-24.6 139.84-16.75 134.19-9.05L134.19-9.05Q134.54-7 135.34-6.13 136.14-5.25 137.44-5.25L137.44-5.25Q139.49-5.25 141.04-6.43 142.59-7.6 144.99-10.45L144.99-10.45Q145.59-11.15 146.34-11.15L146.34-11.15ZM140.19-42.05Q139.04-42.05 137.59-37.9 136.14-33.75 135.04-27.6 133.94-21.45 133.84-15.8L133.84-15.8Q137.39-21.65 139.49-27.53 141.59-33.4 141.59-38.25L141.59-38.25Q141.59-42.05 140.19-42.05L140.19-42.05ZM153.24 0.25Q148.34 0.25 145.61-2.53 142.89-5.3 142.89-9.85L142.89-9.85Q142.89-13.9 144.49-16.95 146.09-20 148.64-21.65 151.19-23.3 153.99-23.3L153.99-23.3Q156.74-23.3 158.26-21.68 159.79-20.05 159.79-17.5L159.79-17.5Q159.79-15.4 158.86-13.95 157.94-12.5 156.44-12.5L156.44-12.5Q155.49-12.5 154.91-12.95 154.34-13.4 154.34-14.2L154.34-14.2Q154.34-14.55 154.44-15 154.54-15.45 154.59-15.65L154.59-15.65Q154.84-16.4 154.84-17.05L154.84-17.05Q154.84-17.7 154.51-18.05 154.19-18.4 153.59-18.4L153.59-18.4Q152.44-18.4 151.44-17.38 150.44-16.35 149.84-14.6 149.24-12.85 149.24-10.75L149.24-10.75Q149.24-4.95 154.29-4.95L154.29-4.95Q156.34-4.95 158.71-6.33 161.09-7.7 163.39-10.45L163.39-10.45Q163.99-11.15 164.74-11.15L164.74-11.15Q165.39-11.15 165.76-10.55 166.14-9.95 166.14-8.9L166.14-8.9Q166.14-7 165.19-5.8L165.19-5.8Q162.84-2.9 159.56-1.33 156.29 0.25 153.24 0.25L153.24 0.25ZM189.83-11.15Q190.48-11.15 190.86-10.55 191.23-9.95 191.23-8.9L191.23-8.9Q191.23-6.9 190.28-5.8L190.28-5.8Q187.98-3.15 185.56-1.45 183.13 0.25 180.03 0.25L180.03 0.25Q177.48 0.25 176.18-1.23 174.88-2.7 174.88-5.5L174.88-5.5Q174.88-6.9 175.58-10.5L175.58-10.5Q176.23-13.65 176.23-14.85L176.23-14.85Q176.23-15.65 175.68-15.65L175.68-15.65Q175.03-15.65 173.83-13.98 172.63-12.3 171.43-9.55 170.23-6.8 169.48-3.75L169.48-3.75Q168.53 0.25 164.78 0.25L164.78 0.25Q163.28 0.25 162.81-0.83 162.33-1.9 162.33-4.7L162.33-4.7Q162.33-6.3 162.38-7.25L162.38-7.25 162.43-11.25Q162.43-18.95 164.01-27.3 165.58-35.65 168.66-41.33 171.73-47 176.03-47L176.03-47Q178.33-47 179.76-45.03 181.18-43.05 181.18-39.9L181.18-39.9Q181.18-34.85 178.23-29.43 175.28-24 168.63-16.75L168.63-16.75Q168.48-14.15 168.48-11.4L168.48-11.4Q170.13-15.65 172.16-18.32 174.18-21 176.16-22.15 178.13-23.3 179.78-23.3L179.78-23.3Q183.03-23.3 183.03-20.05L183.03-20.05Q183.03-18.1 181.93-13L181.93-13Q180.98-8.65 180.98-7.25L180.98-7.25Q180.98-5.25 182.43-5.25L182.43-5.25Q183.43-5.25 184.81-6.48 186.18-7.7 188.48-10.45L188.48-10.45Q189.08-11.15 189.83-11.15L189.83-11.15ZM174.98-42.05Q174.08-42.05 172.98-39.48 171.88-36.9 170.86-32.52 169.83-28.15 169.18-23L169.18-23Q172.28-26.65 174.31-30.95 176.33-35.25 176.33-38.75L176.33-38.75Q176.33-40.35 175.98-41.2 175.63-42.05 174.98-42.05L174.98-42.05ZM209.48-11.15Q210.13-11.15 210.51-10.55 210.88-9.95 210.88-8.9L210.88-8.9Q210.88-6.9 209.93-5.8L209.93-5.8Q208.08-3.55 204.71-1.65 201.33 0.25 197.48 0.25L197.48 0.25Q192.23 0.25 189.33-2.6 186.43-5.45 186.43-10.4L186.43-10.4Q186.43-13.85 187.88-16.82 189.33-19.8 191.91-21.55 194.48-23.3 197.73-23.3L197.73-23.3Q200.63-23.3 202.38-21.58 204.13-19.85 204.13-16.9L204.13-16.9Q204.13-13.45 201.66-10.98 199.18-8.5 193.28-7.05L193.28-7.05Q194.53-4.75 198.03-4.75L198.03-4.75Q200.28-4.75 203.16-6.33 206.03-7.9 208.13-10.45L208.13-10.45Q208.73-11.15 209.48-11.15L209.48-11.15ZM196.88-18.4Q195.03-18.4 193.76-16.25 192.48-14.1 192.48-11.05L192.48-11.05 192.48-10.95Q195.43-11.65 197.13-13.05 198.83-14.45 198.83-16.3L198.83-16.3Q198.83-17.25 198.31-17.82 197.78-18.4 196.88-18.4L196.88-18.4ZM210.38 0.25Q208.48 0.25 207.7-1.75 206.93-3.75 206.93-8.15L206.93-8.15Q206.93-14.65 208.78-20.5L208.78-20.5Q209.23-21.95 210.25-22.63 211.28-23.3 213.13-23.3L213.13-23.3Q214.13-23.3 214.53-23.05 214.93-22.8 214.93-22.1L214.93-22.1Q214.93-21.3 214.18-18.5L214.18-18.5Q213.68-16.5 213.38-15.03 213.08-13.55 212.88-11.35L212.88-11.35Q214.23-15.25 216.1-17.95 217.98-20.65 219.95-21.98 221.93-23.3 223.68-23.3L223.68-23.3Q225.43-23.3 226.15-22.5 226.88-21.7 226.88-20.05L226.88-20.05Q226.88-18.45 225.93-14.25L225.93-14.25Q225.53-12.45 225.38-11.55L225.38-11.55Q227.88-17.7 230.93-20.5 233.98-23.3 236.63-23.3L236.63-23.3Q239.88-23.3 239.88-20.05L239.88-20.05Q239.88-18.1 238.78-13L238.78-13Q237.83-8.65 237.83-7.25L237.83-7.25Q237.83-5.25 239.28-5.25L239.28-5.25Q240.28-5.25 241.65-6.48 243.03-7.7 245.33-10.45L245.33-10.45Q245.93-11.15 246.68-11.15L246.68-11.15Q247.33-11.15 247.7-10.55 248.08-9.95 248.08-8.9L248.08-8.9Q248.08-6.9 247.13-5.8L247.13-5.8Q244.98-3.15 242.5-1.45 240.03 0.25 236.88 0.25L236.88 0.25Q234.33 0.25 233.03-1.23 231.73-2.7 231.73-5.5L231.73-5.5Q231.73-6.9 232.43-10.5L232.43-10.5Q233.08-13.65 233.08-14.85L233.08-14.85Q233.08-15.65 232.53-15.65L232.53-15.65Q231.88-15.65 230.68-13.98 229.48-12.3 228.28-9.55 227.08-6.8 226.33-3.75L226.33-3.75Q225.78-1.35 225.05-0.55 224.33 0.25 222.73 0.25L222.73 0.25Q221.08 0.25 220.25-1.33 219.43-2.9 219.43-5.15L219.43-5.15Q219.43-7.05 219.93-10.65L219.93-10.65Q220.33-13.85 220.33-14.85L220.33-14.85Q220.33-15.65 219.78-15.65L219.78-15.65Q219.03-15.65 217.88-13.85 216.73-12.05 215.65-9.25 214.58-6.45 213.93-3.75L213.93-3.75Q213.38-1.4 212.65-0.58 211.93 0.25 210.38 0.25L210.38 0.25ZM269.63-11.05Q270.28-11.05 270.65-10.43 271.03-9.8 271.03-8.85L271.03-8.85Q271.03-7.7 270.68-7.05 270.33-6.4 269.58-5.9L269.58-5.9 259.98 0.55Q258.08 10.9 255 16.82 251.93 22.75 247.18 22.75L247.18 22.75Q244.63 22.75 243.03 21.18 241.43 19.6 241.43 17.05L241.43 17.05Q241.43 14.7 242.5 12.25 243.58 9.8 246.5 6.63 249.43 3.45 254.78-0.65L254.78-0.65 254.93-1.8Q255.28-3.65 255.73-7.1L255.73-7.1Q254.73-3.5 252.93-1.63 251.13 0.25 249.13 0.25L249.13 0.25Q246.88 0.25 245.45-1.83 244.03-3.9 244.03-7L244.03-7Q244.03-10.75 244.53-13.88 245.03-17 246.18-20.5L246.18-20.5Q246.68-22 247.58-22.65 248.48-23.3 250.43-23.3L250.43-23.3Q251.53-23.3 251.95-22.95 252.38-22.6 252.38-21.9L252.38-21.9Q252.38-21.5 251.83-19.2L251.83-19.2Q251.33-17.35 251.03-15.85L251.03-15.85Q250.63-13.8 250.33-11.93 250.03-10.05 250.03-8.85L250.03-8.85Q250.03-6.95 251.08-6.95L251.08-6.95Q251.83-6.95 252.95-8.45 254.08-9.95 255.35-13 256.63-16.05 257.83-20.5L257.83-20.5Q258.23-22 259.05-22.65 259.88-23.3 261.53-23.3L261.53-23.3Q262.68-23.3 263.13-23 263.58-22.7 263.58-22L263.58-22Q263.58-20.75 262.28-13.4L262.28-13.4 260.98-5.35Q264.83-8.25 268.48-10.65L268.48-10.65Q269.13-11.05 269.63-11.05L269.63-11.05ZM247.73 17.9Q248.98 17.9 250.53 15 252.08 12.1 253.63 5.35L253.63 5.35Q249.78 8.6 248.05 11.28 246.33 13.95 246.33 15.95L246.33 15.95Q246.33 16.8 246.65 17.35 246.98 17.9 247.73 17.9L247.73 17.9Z" opacity="1" transform="matrix(1,0,0,1,0,0)" fill="#000000" class="wordmark-text-0" data-fill-palette-color="primary" id="text-0"></path></svg></g></svg></g></svg></g></svg></g></svg></g></svg></g></svg></g><defs></defs></svg><rect width="448" height="360" fill="none" stroke="none" visibility="hidden"></rect></g></svg></g></svg>